<svg width="24" height="16" viewBox="0 0 24 16" fill="#83c5be" xmlns="http://www.w3.org/2000/svg">
<path d="M19.6695 1.45519C19.6634 1.44406 19.6532 1.43534 19.6409 1.43058C18.2112 0.815653 16.7026 0.377159 15.1526 0.126076C15.1386 0.123621 15.124 0.125392 15.1111 0.131135C15.0981 0.136879 15.0874 0.146303 15.0805 0.158068C14.8751 0.507622 14.6886 0.866673 14.5218 1.23385C12.851 0.996081 11.1516 0.996081 9.4808 1.23385C9.31287 0.86574 9.12339 0.506601 8.91324 0.158068C8.90603 0.146559 8.8953 0.137352 8.88243 0.131645C8.86956 0.125939 8.85515 0.123998 8.84109 0.126076C7.29098 0.376632 5.78223 0.815159 4.35279 1.43062C4.34055 1.43548 4.33023 1.44379 4.32324 1.45438C1.46465 5.4565 0.681579 9.36022 1.06573 13.2156C1.06681 13.225 1.06991 13.2342 1.07483 13.2425C1.07976 13.2508 1.08642 13.2581 1.09442 13.2639C2.75895 14.4194 4.62074 15.3013 6.60035 15.8721C6.61429 15.8761 6.62918 15.8759 6.64301 15.8716C6.65684 15.8674 6.66895 15.8593 6.67772 15.8484C7.10289 15.306 7.47963 14.7317 7.8041 14.1313C7.80856 14.123 7.81111 14.114 7.81157 14.1048C7.81204 14.0955 7.81041 14.0863 7.8068 14.0777C7.80319 14.0691 7.79768 14.0614 7.79063 14.0549C7.78358 14.0484 7.77514 14.0435 7.76589 14.0403C7.1718 13.8272 6.59665 13.5703 6.04584 13.272C6.03584 13.2665 6.02743 13.2588 6.02137 13.2495C6.01531 13.2402 6.01179 13.2297 6.0111 13.2188C6.01042 13.2079 6.01259 13.1971 6.01744 13.1872C6.02229 13.1773 6.02966 13.1687 6.0389 13.1621C6.15448 13.0809 6.27013 12.9965 6.38049 12.9112C6.3903 12.9036 6.40216 12.8988 6.41475 12.8972C6.42734 12.8956 6.44015 12.8973 6.45174 12.9022C10.0603 14.4462 13.9671 14.4462 17.533 12.9022C17.5446 12.897 17.5576 12.8951 17.5703 12.8965C17.5831 12.898 17.5952 12.9028 17.6051 12.9104C17.7155 12.9957 17.8312 13.0809 17.9476 13.1621C17.9569 13.1686 17.9643 13.1772 17.9692 13.187C17.9742 13.1969 17.9764 13.2077 17.9758 13.2186C17.9752 13.2295 17.9718 13.24 17.9658 13.2493C17.9598 13.2586 17.9515 13.2664 17.9415 13.272C17.392 13.5728 16.8163 13.8295 16.2206 14.0395C16.2114 14.0428 16.203 14.0479 16.196 14.0544C16.189 14.061 16.1835 14.0688 16.18 14.0775C16.1764 14.0862 16.1749 14.0954 16.1754 14.1047C16.176 14.114 16.1786 14.123 16.1831 14.1313C16.513 14.7284 16.8892 15.3019 17.3087 15.8474C17.3172 15.8586 17.3292 15.867 17.3431 15.8714C17.357 15.8758 17.372 15.8761 17.386 15.872C19.3692 15.3031 21.2342 14.4211 22.9009 13.2639C22.909 13.2584 22.9157 13.2513 22.9207 13.2431C22.9256 13.2349 22.9286 13.2258 22.9295 13.2164C23.3894 8.75918 22.1596 4.88746 19.6695 1.45519ZM8.34302 10.8681C7.25657 10.8681 6.36137 9.93337 6.36137 8.78545C6.36137 7.63753 7.2392 6.70276 8.34302 6.70276C9.45545 6.70276 10.342 7.64565 10.3246 8.78538C10.3246 9.93337 9.44675 10.8681 8.34302 10.8681ZM15.6698 10.8681C14.5834 10.8681 13.6882 9.93337 13.6882 8.78545C13.6882 7.63753 14.566 6.70276 15.6698 6.70276C16.7823 6.70276 17.6688 7.64565 17.6514 8.78538C17.6514 9.93337 16.7823 10.8681 15.6698 10.8681Z" />
</svg>
