<svg width="22" height="18" viewBox="0 0 22 18" fill="#83c5be" xmlns="http://www.w3.org/2000/svg">
<path d="M21.3673 2.37727C20.6007 2.71805 19.7756 2.94792 18.9099 3.05079C19.7938 2.52162 20.4716 1.68342 20.7912 0.683513C19.9644 1.17416 19.0492 1.53018 18.0742 1.72237C17.294 0.890946 16.1819 0.371094 14.9513 0.371094C12.5887 0.371094 10.6731 2.28667 10.6731 4.64972C10.6731 4.98457 10.7108 5.31096 10.784 5.62465C7.22802 5.44601 4.07504 3.74294 1.96473 1.15426C1.59643 1.78587 1.38561 2.52078 1.38561 3.30564C1.38561 4.78984 2.14083 6.09963 3.28891 6.86671C2.58787 6.84427 1.9279 6.65166 1.35089 6.33119C1.35047 6.34897 1.35047 6.36718 1.35047 6.38538C1.35047 8.45802 2.82536 10.1869 4.78285 10.5806C4.42387 10.678 4.04583 10.7305 3.65552 10.7305C3.3795 10.7305 3.11153 10.7038 2.85034 10.6534C3.39517 12.3531 4.97505 13.5905 6.84702 13.6248C5.38271 14.7724 3.53825 15.4566 1.53335 15.4566C1.18833 15.4566 0.847551 15.4362 0.512695 15.3964C2.40669 16.611 4.65543 17.3188 7.07139 17.3188C14.9416 17.3188 19.2447 10.7995 19.2447 5.14544C19.2447 4.96002 19.2409 4.77502 19.2329 4.5913C20.0685 3.98932 20.7941 3.23536 21.3673 2.37727Z"/>
</svg>
